<svg width="24" height="24" viewBox="0 0 24 24" fill="none" xmlns="http://www.w3.org/2000/svg">
<path d="M9.67237 7.05195L11.5905 3L13.5086 4.35065L12.8692 7.72727V9.07792H16.066L20.5416 9.75325L21.1809 11.7792L19.2628 20.5584L17.3447 21.9091H6.47555L5.83619 21.2338L4.55746 21.9091H2V10.4286L3.27873 9.75325H5.83619L7.11491 9.07792L9.67237 7.05195Z" fill="white"/>
<path fill-rule="evenodd" clip-rule="evenodd" d="M12.2475 1.87012C13.9184 1.87012 14.434 3.63067 14.434 4.89505C14.434 5.84374 14.2726 6.75954 13.9498 7.64244L13.8016 8.0188H18.7674C21.384 8.0188 22.5177 9.33142 22.1685 11.9567L20.3261 19.3108C19.8439 21.2319 18.8247 22.1711 17.2684 22.1285L17.0424 22.1157H6.9668C6.71896 22.1157 6.48661 22.0457 6.2865 21.9234C6.08923 22.0543 5.85632 22.1299 5.60669 22.1299H3.04924C2.34301 22.1299 1.77051 21.5251 1.77051 20.7792V9.97401C1.77051 9.22807 2.34301 8.62336 3.04924 8.62336L5.62587 8.62471L7.1004 7.88548L7.1549 7.8526C8.47226 6.79232 9.33203 5.80647 9.73421 4.89505L9.81473 4.70674L9.96496 4.32851L10.2483 3.58951C10.6308 2.63794 11.0851 1.87012 12.2475 1.87012ZM5.35095 10.2441H3.30498V20.5091H5.35095V10.2441ZM12.1401 3.49761L12.2475 3.4909C12.6204 3.4909 12.8996 3.98526 12.8996 4.89505C12.8996 5.75125 12.7343 6.56755 12.4002 7.35847C11.9474 8.43049 12.6902 9.63958 13.8016 9.63958H18.7674L18.9733 9.64203C20.4342 9.67831 20.8237 10.1261 20.6728 11.5332L20.6586 11.6421L18.8429 18.8955L18.7804 19.1275C18.4598 20.2357 18.0087 20.5715 17.1651 20.5001L7.14117 20.4942V9.66606L7.71846 9.37286L7.89782 9.27176L8.01911 9.19213L8.08492 9.14176L8.42196 8.86429C9.73601 7.7569 10.6403 6.67824 11.125 5.57975C11.185 5.44383 11.2433 5.30353 11.3041 5.15023L11.5448 4.52117L11.7424 4.01867L11.8427 3.79589C11.9495 3.58138 12.0269 3.51605 12.1401 3.49761Z" fill="#646464"/>
</svg>
