<svg width="16" height="16" viewBox="0 0 16 16" fill="none" xmlns="http://www.w3.org/2000/svg">
<path d="M8.74348 0.585632C9.42506 0.585632 9.81558 1.26353 9.81558 2.22524C9.81558 2.94358 9.67354 3.49319 9.38812 4.15553C9.21711 4.55239 9.49764 4.99999 9.91738 4.99999H12.9622C14.5929 4.99999 15.1712 6.07059 14.9573 7.64637L13.5794 12.3582C13.266 13.5821 12.6814 14.0715 11.7055 13.9905L5.46919 13.9886L5.38869 13.9812C5.17978 13.9419 5.02136 13.7526 5.02136 13.525C5.02136 13.525 4.97864 6.25125 5.02136 5.71859C5.06408 5.18592 5.63309 4.80704 5.6857 4.77099L5.70872 4.75417C6.77182 3.91549 7.02012 3.25666 7.37034 2.47871L7.43285 2.33569L7.58902 1.94767L7.67488 1.725C8.02963 0.809677 8.22353 0.585632 8.74348 0.585632Z" fill="#CCCCCC"/>
<path d="M1.42857 5.5H3.57143C3.80812 5.5 4 5.67298 4 5.88636V13.6136C4 13.827 3.80812 14 3.57143 14H1.42857C1.19188 14 1 13.827 1 13.6136V5.88636C1 5.67298 1.19188 5.5 1.42857 5.5Z" fill="#CCCCCC"/>
</svg>
