<svg width="16" height="16" viewBox="0 0 16 16" fill="none" xmlns="http://www.w3.org/2000/svg">
<rect opacity="0.01" width="16" height="16" fill="white"/>
<path fill-rule="evenodd" clip-rule="evenodd" d="M0 7.99951C0 6.49554 3.58166 2 8 2C12.4183 2 16 6.54388 16 7.99951C16 9.45513 12.4183 14 8 14C3.58166 14 0 9.58103 0 7.99951ZM12 8C12 10.2084 10.2084 12 8 12C5.79034 12 4 10.2084 4 8C4 5.79155 5.79034 4 8 4C10.2084 4 12 5.79155 12 8ZM10 8C10 9.10422 9.10422 10 8 10C6.89517 10 6 9.10422 6 8C6 6.89578 6.89517 6 8 6C9.10422 6 10 6.89578 10 8Z" fill="#CCCCCC"/>
</svg>
