<svg width="158" height="18" viewBox="0 0 158 18" fill="none" xmlns="http://www.w3.org/2000/svg">
<path fill-rule="evenodd" clip-rule="evenodd" d="M5.95804 11.9161L9.27273 17.7483H13.6154L9.86014 11.2238C11.8112 10.2378 13.1119 8.26573 13.1119 6.08392C13.1119 2.70629 10.4266 0 7.06993 0H0V17.7483H4.04895V11.9161H5.95804ZM4.02797 8.37063V3.7972H7.04895C8.16084 3.7972 9.06294 4.78322 9.06294 6.08392C9.06294 7.38461 8.16084 8.37063 7.04895 8.37063H4.02797Z" fill="white"/>
<path fill-rule="evenodd" clip-rule="evenodd" d="M18.8889 12.8182C19.3759 14.1238 20.5248 14.5804 21.9021 14.5804C22.9301 14.5804 23.8112 14.1818 24.3147 13.6154L27.3357 15.3776C26.0979 17.0979 24.2308 18 21.8392 18C17.5175 18 14.8531 15.0839 14.8531 11.2867C14.8531 7.48951 17.5804 4.57343 21.5664 4.57343C25.2378 4.57343 27.965 7.44755 27.965 11.2867C27.965 11.8112 27.9231 12.3357 27.8182 12.8182H18.8889ZM24.1888 10.1329H18.6504C19.028 8.83217 19.993 8.11888 21.4615 8.0979C22.6154 8.0979 23.7692 8.64336 24.1888 10.1329Z" fill="white"/>
<path d="M48.9021 9.77622C48.9021 6.62937 47.014 4.57343 44.1189 4.57343C42.3357 4.57343 41.1818 5.22378 40.4266 6.20979C39.7343 5.16084 38.6224 4.55245 37.1329 4.55245C35.4545 4.55245 34.3427 5.2028 33.7552 6.06294V4.90909H29.979V17.4965H33.7552V10.4056C33.7552 8.91608 34.4685 8.03497 35.7273 8.03497C36.9441 8.03497 37.5524 8.83217 37.5524 10.0909V17.4965H41.3287V10.4056C41.3287 8.91608 42.042 8.03497 43.3007 8.03497C44.5175 8.03497 45.1259 8.83217 45.1259 10.0909V17.4965H48.9021V9.77622Z" fill="white"/>
<path fill-rule="evenodd" clip-rule="evenodd" d="M54.9518 12.8182C55.4388 14.1238 56.5878 14.5804 57.965 14.5804C58.993 14.5804 59.8741 14.1818 60.3776 13.6154L63.3986 15.3776C62.1608 17.0979 60.2937 18 57.9021 18C53.5804 18 50.9161 15.0839 50.9161 11.2867C50.9161 7.48951 53.6434 4.57343 57.6294 4.57343C61.3007 4.57343 64.028 7.44755 64.028 11.2867C64.028 11.8112 63.986 12.3357 63.8811 12.8182H54.9518ZM60.2518 10.1329H54.7133C55.0699 8.83217 56.0559 8.11888 57.5245 8.0979C58.6783 8.0979 59.8322 8.64336 60.2518 10.1329Z" fill="white"/>
<path d="M84.965 9.77622C84.965 6.62937 83.0769 4.57343 80.1818 4.57343C78.3986 4.57343 77.2238 5.22378 76.4895 6.20979C75.7972 5.16084 74.6853 4.55245 73.1958 4.55245C71.5175 4.55245 70.4056 5.2028 69.8182 6.06294V4.90909H66.042V17.4965H69.8182V10.4056C69.8182 8.91608 70.5315 8.03497 71.7902 8.03497C73.007 8.03497 73.6154 8.83217 73.6154 10.0909V17.4965H77.3916V10.4056C77.3916 8.91608 78.1049 8.03497 79.3636 8.03497C80.5804 8.03497 81.1888 8.83217 81.1888 10.0909V17.4965H84.965V9.77622Z" fill="white"/>
<path fill-rule="evenodd" clip-rule="evenodd" d="M101.35 11.3287C101.35 7.57343 98.6224 4.67832 95.3077 4.67832C93.6294 4.67832 92.3706 5.26573 91.5315 6.23077V0H87.7343V17.6224H91.5315V16.4476C92.3706 17.3916 93.6084 17.979 95.3077 17.979C98.6224 17.979 101.35 15.0839 101.35 11.3287ZM97.5734 11.4126C97.5734 13.2797 96.3147 14.4545 94.5525 14.4545C92.8112 14.4545 91.5315 13.2797 91.5315 11.4126C91.5315 9.54545 92.7902 8.37063 94.5525 8.37063C96.2937 8.37063 97.5734 9.54545 97.5734 11.4126Z" fill="white"/>
<path fill-rule="evenodd" clip-rule="evenodd" d="M106.644 12.8182C107.131 14.1238 108.28 14.5804 109.657 14.5804C110.685 14.5804 111.566 14.1818 112.07 13.6154L115.091 15.3776C113.853 17.0979 111.986 18 109.594 18C105.273 18 102.608 15.0839 102.608 11.2867C102.608 7.48951 105.336 4.57343 109.322 4.57343C112.993 4.57343 115.72 7.44755 115.72 11.2867C115.72 11.8112 115.678 12.3357 115.573 12.8182H106.644ZM112.196 10.1329H106.657C107.014 8.83217 108 8.11888 109.469 8.0979C110.622 8.0979 111.776 8.64336 112.196 10.1329Z" fill="white"/>
<path d="M125.559 4.8042C123.986 4.8042 122.287 5.62238 121.783 7.32168V5.07692H118.007V17.7273H121.783V12C121.783 9.48252 123.986 8.85315 125.559 9.10489V4.8042Z" fill="white"/>
<path fill-rule="evenodd" clip-rule="evenodd" d="M157.343 0H129.105V17.7483H157.343V0ZM132.881 13.9301V3.7972H153.566V13.9301H132.881Z" fill="white"/>
</svg>
