<svg width="180" height="180" viewBox="0 0 180 180" fill="none" xmlns="http://www.w3.org/2000/svg">
<circle cx="90" cy="90" r="90" fill="#EBEBEB"/>
<mask id="mask0_2600_47795" style="mask-type:alpha" maskUnits="userSpaceOnUse" x="0" y="0" width="180" height="180">
<circle cx="90" cy="90" r="90" fill="#EBEBEB"/>
</mask>
<g mask="url(#mask0_2600_47795)">
<line x1="85.2354" y1="93.0452" x2="85.2354" y2="99.1772" stroke="#212322" stroke-width="2" stroke-linecap="round"/>
<line x1="96.4902" y1="97.932" x2="92.1542" y2="102.268" stroke="#212322" stroke-width="2" stroke-linecap="round"/>
<line x1="101.125" y1="108.496" x2="94.9929" y2="108.496" stroke="#212322" stroke-width="2" stroke-linecap="round"/>
<path d="M100.08 220.078C100.08 220.078 97.781 138.276 77.5496 115.424L27.6658 112.223C27.6658 112.223 -11.9037 110.093 -13.5388 220.078L100.08 220.078Z" fill="white" stroke="#212322" stroke-width="2" stroke-miterlimit="10"/>
<path d="M30.7008 71.2575C32.3454 70.1343 33.7762 70.3797 34.8945 71.0503L34.3408 61.6449C34.3408 52.6538 41.6648 46.4544 50.7101 46.4544L52.7823 45.364C61.8222 45.364 69.1461 52.6538 69.1461 61.6449L68.6253 70.5051C69.6176 70.1343 70.7962 70.1507 72.1119 71.0503C75.6314 73.4658 74.99 79.1036 68.0059 81.121L67.8688 83.4328C67.8688 87.3204 66.734 90.4119 64.7222 92.6692L64.7222 112.303C64.7222 119.004 59.2621 115.133 52.5192 115.133L50.9787 113.857C44.2359 113.857 38.7758 113.732 38.7758 107.025L38.7758 92.6692C36.7584 90.4119 35.6181 87.3149 35.6181 83.4219L35.503 81.4972C27.8666 79.6652 27.0662 73.7384 30.6953 71.2466L30.7008 71.2575Z" fill="white" stroke="#212322" stroke-width="2" stroke-miterlimit="10"/>
<path d="M54.2939 71.3975L50.8245 71.4156" stroke="#212322" stroke-width="2" stroke-linecap="round" stroke-linejoin="round"/>
<path d="M32.8213 74.4835L35.1201 76.3992" stroke="#212322" stroke-width="2" stroke-linecap="round" stroke-linejoin="round"/>
<path d="M46.8251 73.0911C44.8641 72.2606 44.8475 75.342 45.4386 76.1589C46.8195 78.1148 47.9519 74.9744 47.1068 73.4723L46.8251 73.0911Z" fill="#212322"/>
<path d="M60.618 73.0911C58.6571 72.2606 58.6405 75.342 59.2316 76.1589C60.6125 78.1148 61.7449 74.9744 60.8997 73.4723L60.618 73.0911Z" fill="#212322"/>
<path d="M35.0583 51.5383L34.8528 51.8019C33.3874 53.8668 32.9237 56.6924 33.0852 59.728C33.229 62.4324 33.8639 65.1918 34.6073 67.4942C35.5089 64.7397 36.859 61.0441 38.1827 58.6867L38.7146 57.7394L39.6146 58.3478C47.2907 63.5366 55.3866 60.6024 63.0507 56.1019L64.1622 55.4493L64.5182 56.688C64.574 56.8821 64.6297 57.0761 64.6853 57.2698C65.486 60.0582 66.2713 62.7932 67.0216 64.9277C67.4193 66.059 67.7939 66.9825 68.1399 67.6405C69.2003 65.1983 70.2273 61.4755 70.4667 58.1253C70.6108 56.1089 70.4588 54.3543 69.9523 53.1274C69.7041 52.5265 69.3862 52.0893 69.0114 51.7961C68.6451 51.5098 68.1723 51.3194 67.5323 51.2888L66.0482 51.2179L66.6726 49.8697C67.0459 49.0639 67.2605 48.1744 67.2605 47.2368C67.2605 43.7879 64.477 40.9999 61.0475 40.9999C60.2977 40.9999 59.5826 41.1398 58.9082 41.3906L58.7882 41.4352L58.6608 41.4481C58.2822 41.4866 57.9202 41.5532 57.5891 41.6454C55.6548 42.1945 53.0559 43.5677 50.328 45.0103L50.2965 45.027C47.6623 46.42 44.8906 47.8858 42.7875 48.4388L42.7871 48.4389C41.8871 48.6752 41.0573 48.8113 40.3153 48.9301L40.2295 48.9438C39.5098 49.0589 38.8949 49.1573 38.3108 49.3136C37.1679 49.6194 36.1433 50.1462 35.0583 51.5383Z" fill="#212322" stroke="#212322" stroke-width="2"/>
<path d="M55.8105 120.991L60.9365 113.564L66.7987 115.903L65.1999 125.67L78.2393 172.951L75.3657 183.104L66.7987 186.936L53.5265 181.955L59.008 124.994L55.8105 120.991Z" fill="white" stroke="#212322" stroke-width="2" stroke-miterlimit="10"/>
<path d="M52.2839 71.6999C52.2468 71.1488 52.6635 70.6721 53.2145 70.635C53.7656 70.598 54.2423 71.0146 54.2794 71.5657L52.2839 71.6999ZM53.8877 80.6458L54.8854 80.5787L54.9025 80.8326L54.7962 81.0637L53.8877 80.6458ZM49.1298 82.4337C48.6552 82.1512 48.4995 81.5374 48.7821 81.0629C49.0646 80.5883 49.6783 80.4326 50.1529 80.7152L49.1298 82.4337ZM54.2794 71.5657L54.8854 80.5787L52.8899 80.7129L52.2839 71.6999L54.2794 71.5657ZM53.8877 80.6458C54.7962 81.0637 54.7959 81.0642 54.7957 81.0648C54.7956 81.065 54.7953 81.0655 54.7952 81.0659C54.7948 81.0667 54.7944 81.0675 54.794 81.0683C54.7932 81.0701 54.7923 81.072 54.7914 81.074C54.7894 81.0782 54.7871 81.083 54.7845 81.0884C54.7792 81.0993 54.7726 81.1128 54.7645 81.1287C54.7484 81.1605 54.7265 81.2019 54.6987 81.2511C54.6432 81.3492 54.5629 81.4803 54.456 81.6281C54.2453 81.9193 53.9135 82.3 53.4413 82.613C52.9604 82.9318 52.3364 83.1775 51.576 83.1823C50.8196 83.1871 50.0023 82.9531 49.1298 82.4337L50.1529 80.7152C50.7795 81.0882 51.2425 81.1844 51.5634 81.1824C51.8802 81.1804 52.1304 81.0824 52.3363 80.9459C52.551 80.8037 52.7186 80.6175 52.8356 80.4558C52.8925 80.3771 52.9332 80.3101 52.9577 80.2667C52.9699 80.2452 52.9777 80.2301 52.9813 80.223C52.9831 80.2195 52.9839 80.218 52.9835 80.2187C52.9833 80.2191 52.9829 80.22 52.9821 80.2215C52.9818 80.2223 52.9814 80.2232 52.9809 80.2243C52.9806 80.2248 52.9803 80.2254 52.9801 80.226C52.9799 80.2263 52.9797 80.2268 52.9796 80.2269C52.9794 80.2274 52.9792 80.2279 53.8877 80.6458Z" fill="#212322"/>
<path d="M52.0018 87.6663C52.5137 87.4591 53.0967 87.7062 53.3039 88.2181C53.5111 88.73 53.2641 89.313 52.7521 89.5202L52.0018 87.6663ZM44.1611 85.9459C43.9668 85.4289 44.2284 84.8523 44.7454 84.658C45.2624 84.4638 45.839 84.7254 46.0333 85.2423L44.1611 85.9459ZM52.377 88.5933C52.7521 89.5202 52.7517 89.5204 52.7512 89.5206C52.751 89.5207 52.7505 89.5209 52.7502 89.521C52.7494 89.5213 52.7486 89.5217 52.7477 89.522C52.7458 89.5228 52.7437 89.5236 52.7412 89.5246C52.7362 89.5266 52.73 89.529 52.7224 89.532C52.7073 89.5378 52.687 89.5455 52.6619 89.5547C52.6117 89.5732 52.5419 89.5979 52.4547 89.6265C52.2806 89.6835 52.0352 89.7563 51.7362 89.825C51.1433 89.9612 50.3132 90.0875 49.3981 90.0268C48.4796 89.9658 47.4474 89.714 46.4926 89.0682C45.5293 88.4167 44.7107 87.4083 44.1611 85.9459L46.0333 85.2423C46.4534 86.3603 47.0296 87.0169 47.6131 87.4116C48.2051 87.812 48.8716 87.9874 49.5306 88.0311C50.193 88.0751 50.8192 87.9836 51.2883 87.8758C51.5203 87.8225 51.7072 87.7667 51.8327 87.7257C51.8953 87.7052 51.9421 87.6885 51.9711 87.6778C51.9856 87.6725 51.9955 87.6687 52.0007 87.6667C52.0033 87.6657 52.0048 87.6651 52.0049 87.6651C52.005 87.665 52.0048 87.6651 52.0043 87.6653C52.004 87.6654 52.0037 87.6656 52.0033 87.6657C52.0031 87.6658 52.0027 87.666 52.0026 87.666C52.0022 87.6662 52.0018 87.6663 52.377 88.5933Z" fill="#212322"/>
<path d="M66.8217 115.951L74.0512 124.292L77.6494 115.41L64.5673 104.752L59.6416 112.983L66.8217 115.951Z" fill="white" stroke="#212322" stroke-width="2" stroke-miterlimit="10"/>
<path d="M60.792 114.26L38.4159 105.901L28.8159 112.223L52.2067 126.974L60.792 114.26Z" fill="white" stroke="#212322" stroke-width="2" stroke-miterlimit="10"/>
<path d="M20.7202 154.425C20.7953 153.878 21.2997 153.495 21.8468 153.57C22.394 153.645 22.7767 154.15 22.7017 154.697L20.7202 154.425ZM20.994 167.148C20.9189 167.695 20.4145 168.078 19.8674 168.003C19.3202 167.928 18.9375 167.424 19.0125 166.876L20.994 167.148ZM22.7017 154.697L20.994 167.148L19.0125 166.876L20.7202 154.425L22.7017 154.697Z" fill="#212322"/>
<path d="M61.174 79.4643C57.5768 79.4643 54.6606 76.5482 54.6606 72.9509C54.6606 69.3536 57.5768 66.4374 61.174 66.4374C64.7713 66.4374 67.6875 69.3536 67.6875 72.9509C67.6875 76.5482 64.7713 79.4643 61.174 79.4643Z" stroke="#212322" stroke-width="2" stroke-miterlimit="10"/>
<path d="M44.3147 79.4646C40.7174 79.4646 37.8012 76.5484 37.8012 72.9511C37.8012 69.3539 40.7174 66.4377 44.3147 66.4377C47.912 66.4377 50.8281 69.3539 50.8281 72.9511C50.8281 76.5484 47.912 79.4646 44.3147 79.4646Z" stroke="#212322" stroke-width="2" stroke-miterlimit="10"/>
<path d="M22.0558 197.421L47.1556 176.57C47.1556 176.57 64.9544 173.665 82.647 172.759L78.624 150.154L93.2834 131.281C113.026 154.21 118.854 176.969 116.469 185.339C112.326 209.337 25.503 202.682 22.0558 197.421Z" fill="white"/>
<path d="M95.2034 168.792C90.1417 170.252 88.9224 170.264 82.647 172.759M82.647 172.759C64.9544 173.665 47.1556 176.57 47.1556 176.57L22.0558 197.421C25.503 202.682 112.326 209.337 116.469 185.339C118.854 176.969 113.026 154.21 93.2834 131.281L78.624 150.154L82.647 172.759Z" stroke="#212322" stroke-width="2" stroke-linecap="round"/>
<rect width="22.5622" height="32.9504" rx="7" transform="matrix(-1 2.18557e-08 2.18557e-08 1 87.6094 113.331)" fill="white" stroke="#212322" stroke-width="2" stroke-miterlimit="10"/>
<path d="M87.7086 135.748C87.7086 135.748 73.7041 139.453 65.0651 135.072L65.0651 131.711C65.0651 131.711 56.7474 131.984 56.7474 145.978C56.7474 145.978 56.8345 152.726 54.2363 155.591C51.638 158.455 8.42623 176.851 -1.53649 182.312C-15.3558 189.879 -12.2945 224.866 19.9795 209.181C50.2926 194.451 67.0206 166.469 70.8989 162.988C74.7772 159.508 92.0173 158.809 94.877 140.849C97.3227 125.475 87.7086 124.292 87.7086 124.292L87.7086 135.748Z" fill="white" stroke="#212322" stroke-width="2" stroke-miterlimit="10"/>
<path d="M83.0566 172.118C83.0566 172.118 85.3784 168.289 92.5315 164.139L83.0566 172.118Z" fill="white"/>
<path d="M83.9117 172.636C83.6254 173.109 83.0104 173.259 82.5381 172.973C82.0659 172.687 81.9152 172.072 82.2016 171.599L83.9117 172.636ZM92.0297 163.274C92.5074 162.996 93.1193 163.159 93.3965 163.637C93.6736 164.114 93.5111 164.726 93.0334 165.003L92.0297 163.274ZM83.0566 172.118C82.2016 171.599 82.2018 171.599 82.202 171.599C82.2021 171.598 82.2024 171.598 82.2026 171.598C82.2029 171.597 82.2034 171.596 82.2038 171.596C82.2047 171.594 82.2057 171.592 82.2069 171.591C82.2093 171.587 82.2122 171.582 82.2157 171.576C82.2228 171.565 82.2323 171.55 82.2442 171.532C82.2681 171.495 82.3018 171.443 82.346 171.379C82.4344 171.25 82.5646 171.069 82.7417 170.841C83.0958 170.385 83.6368 169.746 84.4042 168.978C85.9396 167.441 88.3773 165.393 92.0297 163.274L93.0334 165.003C89.5326 167.035 87.2329 168.976 85.8191 170.391C85.1119 171.099 84.6255 171.676 84.3207 172.068C84.1683 172.264 84.0613 172.414 83.9947 172.511C83.9615 172.56 83.9383 172.595 83.9247 172.616C83.9179 172.627 83.9134 172.634 83.9113 172.637C83.9102 172.639 83.9097 172.64 83.9098 172.639C83.9098 172.639 83.91 172.639 83.9103 172.639C83.9105 172.638 83.9107 172.638 83.9109 172.638C83.911 172.637 83.9112 172.637 83.9113 172.637C83.9115 172.637 83.9117 172.636 83.0566 172.118Z" fill="#212322"/>
<path d="M27.4736 168.146C22.9398 166.358 12.1479 166.476 5.25128 178.89" stroke="#212322" stroke-width="2" stroke-linecap="round"/>
<path d="M102 84C110.284 84 117 77.2843 117 69C117 60.7157 110.284 54 102 54C93.7157 54 87 60.7157 87 69C87 77.2843 93.7157 84 102 84Z" fill="#EA5128" stroke="black" stroke-width="2" stroke-miterlimit="10"/>
<path d="M105.089 72.75C105.089 74.5757 103.704 76.0588 102 76.0588C100.296 76.0588 98.9121 74.5757 98.9121 72.75C98.9121 70.9243 100.296 69.4412 102 69.4412C103.704 69.4412 105.089 70.9243 105.089 72.75Z" fill="white" stroke="black" stroke-width="2" stroke-miterlimit="10"/>
<path d="M96.2646 72.5294V68.4169C96.2646 64.8394 98.9315 61.9412 102.221 61.9412C105.51 61.9412 108.176 64.8394 108.176 68.4169V72.5294" fill="white"/>
<path d="M96.2646 72.5294V68.4169C96.2646 64.8394 98.9315 61.9412 102.221 61.9412C105.51 61.9412 108.176 64.8394 108.176 68.4169V72.5294" stroke="black" stroke-width="2" stroke-miterlimit="10" stroke-linecap="round"/>
<path d="M94.0586 72.5294H110.382" stroke="black" stroke-width="2" stroke-miterlimit="10" stroke-linecap="round"/>
<path d="M102 59.7353V61.9412" stroke="black" stroke-width="2" stroke-miterlimit="10" stroke-linecap="round"/>
<path fill-rule="evenodd" clip-rule="evenodd" d="M138 42C132.477 42 128 46.4772 128 52V54.9374C128 60.4603 132.477 64.9374 138 64.9374H139.797L143.292 70.9904L146.786 64.9374H148.902C154.425 64.9374 158.902 60.4603 158.902 54.9374V52C158.902 46.4772 154.425 42 148.902 42H138Z" fill="white"/>
<path d="M139.797 64.9374L140.663 64.4374C140.484 64.128 140.154 63.9374 139.797 63.9374V64.9374ZM143.292 70.9904L142.426 71.4904C142.604 71.7998 142.934 71.9904 143.292 71.9904C143.649 71.9904 143.979 71.7998 144.158 71.4904L143.292 70.9904ZM146.786 64.9374V63.9374C146.429 63.9374 146.099 64.128 145.92 64.4374L146.786 64.9374ZM129 52C129 47.0294 133.029 43 138 43V41C131.925 41 127 45.9249 127 52H129ZM129 54.9374V52H127V54.9374H129ZM138 63.9374C133.029 63.9374 129 59.908 129 54.9374H127C127 61.0126 131.925 65.9374 138 65.9374V63.9374ZM139.797 63.9374H138V65.9374H139.797V63.9374ZM144.158 70.4904L140.663 64.4374L138.931 65.4374L142.426 71.4904L144.158 70.4904ZM145.92 64.4374L142.426 70.4904L144.158 71.4904L147.652 65.4374L145.92 64.4374ZM148.902 63.9374H146.786V65.9374H148.902V63.9374ZM157.902 54.9374C157.902 59.908 153.872 63.9374 148.902 63.9374V65.9374C154.977 65.9374 159.902 61.0126 159.902 54.9374H157.902ZM157.902 52V54.9374H159.902V52H157.902ZM148.902 43C153.872 43 157.902 47.0294 157.902 52H159.902C159.902 45.9249 154.977 41 148.902 41V43ZM138 43H148.902V41H138V43Z" fill="#212322"/>
<path d="M146.723 49.0266C146.723 50.8418 145.248 52.3163 143.433 52.3163C141.618 52.3163 140.144 50.8418 140.144 49.0266C140.144 47.2114 141.618 45.7369 143.433 45.7369C145.248 45.7369 146.723 47.2114 146.723 49.0266Z" fill="white" stroke="#212322" stroke-width="2" stroke-miterlimit="10"/>
<path d="M135.996 61.1841C135.996 61.7364 136.444 62.1841 136.996 62.1841C137.548 62.1841 137.996 61.7364 137.996 61.1841H135.996ZM148.869 61.1841C148.869 61.7364 149.317 62.1841 149.869 62.1841C150.421 62.1841 150.869 61.7364 150.869 61.1841H148.869ZM137.996 61.1841C137.996 58.0808 140.45 55.6047 143.432 55.6047V53.6047C139.304 53.6047 135.996 57.0179 135.996 61.1841H137.996ZM143.432 55.6047C146.415 55.6047 148.869 58.0808 148.869 61.1841H150.869C150.869 57.0179 147.561 53.6047 143.432 53.6047V55.6047Z" fill="#212322"/>
<path d="M143.65 90.8253H119.514V120.769H143.65V90.8253Z" fill="white" stroke="#212322" stroke-width="2" stroke-miterlimit="10"/>
<path d="M112.799 106.586L128.856 94.4548L144.92 106.586V109.335L128.863 118.591L112.799 110.728V106.586Z" fill="white" stroke="#212322" stroke-width="2" stroke-miterlimit="10"/>
<path d="M140.929 93.5475H116.792V120.225H140.929V93.5475Z" fill="white" stroke="#212322" stroke-width="2" stroke-miterlimit="10"/>
<path d="M112.799 116.395V124.943L121.699 124.727L120.784 120.561L128.769 116.395L120.784 112.232L112.799 108.066V116.395Z" fill="white" stroke="#212322" stroke-width="2" stroke-miterlimit="10"/>
<path d="M144.921 116.395V124.943L136.019 124.727L136.936 120.561L128.951 116.395L136.936 112.232L144.921 108.066V116.395Z" fill="white" stroke="#212322" stroke-width="2" stroke-miterlimit="10"/>
<path d="M128.861 124.98H114.019L121.439 118.068L128.861 111.155L136.281 118.068L143.701 124.98H128.861Z" fill="white" stroke="#212322" stroke-width="2" stroke-miterlimit="10"/>
<line x1="122.511" y1="96.903" x2="135.029" y2="96.903" stroke="#212322" stroke-width="2" stroke-linecap="round"/>
<line x1="122.511" y1="99.988" x2="135.029" y2="99.988" stroke="#212322" stroke-width="2" stroke-linecap="round"/>
<line x1="122.511" y1="102.71" x2="135.029" y2="102.71" stroke="#212322" stroke-width="2" stroke-linecap="round"/>
<line x1="122.511" y1="105.795" x2="135.029" y2="105.795" stroke="#212322" stroke-width="2" stroke-linecap="round"/>
</g>
</svg>
