<svg width="24" height="24" viewBox="0 0 24 24" fill="none" xmlns="http://www.w3.org/2000/svg">
<path fill-rule="evenodd" clip-rule="evenodd" d="M18.49 16.75V9.99997C18.49 6.79997 16.09 4.16997 12.99 3.79997V2.08997H10.99V3.79997C7.88999 4.16997 5.48999 6.79997 5.48999 9.99997V16.75H3.98999V18.75H9.01999C9.01652 18.7847 9.01183 18.8183 9.0072 18.8514C8.9985 18.9137 8.98999 18.9747 8.98999 19.04C8.98999 20.7 10.33 22.04 11.99 22.04C13.65 22.04 14.99 20.7 14.99 19.04C14.99 18.97 14.9802 18.9001 14.9709 18.8336C14.9669 18.8051 14.963 18.777 14.96 18.75H19.99V16.75H18.49ZM7.48999 9.99997C7.48999 7.65997 9.39999 5.74997 11.74 5.74997H12.24C14.58 5.74997 16.49 7.65997 16.49 9.99997V16.75H7.48999V9.99997ZM10.99 19.04C10.99 19.59 11.44 20.04 11.99 20.04C12.54 20.04 12.99 19.59 13 19.04C13 18.94 12.98 18.84 12.95 18.75H11.04C11.01 18.84 10.99 18.94 10.99 19.04Z" fill="white"/>
</svg>
