<svg width="24" height="24" viewBox="0 0 24 24" fill="none" xmlns="http://www.w3.org/2000/svg">
  <rect width="24" height="24" rx="12" fill="none" />
  <path fill-rule="evenodd" clip-rule="evenodd"
    d="M14.7445 14.9839L14.6284 16.0546H9.77186L9.65579 14.9839C9.60728 14.5364 9.38886 14.097 8.79928 13.4469C8.79908 13.4467 8.79715 13.4446 8.79441 13.4416L8.78208 13.4283L8.74252 13.3861L8.62603 13.2624L9.4992 12.4392C9.58793 12.5333 9.6625 12.6124 9.68813 12.6408C10.3521 13.3728 10.7608 14.0428 10.8488 14.8546H13.5515C13.6395 14.0428 14.0481 13.3728 14.7115 12.6414C14.7354 12.6153 14.8 12.5468 14.8788 12.4631C15.0484 12.2832 15.2841 12.0332 15.3228 11.9843C15.7937 11.3884 16.0888 10.6699 16.1742 9.9115C16.2596 9.15312 16.1319 8.38572 15.8056 7.69768C15.4794 7.00963 14.968 6.42892 14.3302 6.02243L14.9752 5.0105C15.8047 5.5392 16.4677 6.29305 16.8899 7.18356C17.3121 8.07395 17.477 9.06597 17.3667 10.0458C17.2563 11.0257 16.8748 11.9557 16.2643 12.7283L16.2637 12.7291C16.1901 12.8221 15.9394 13.0877 15.7935 13.2422C15.7785 13.2582 15.7645 13.273 15.752 13.2863C15.6703 13.3729 15.6159 13.4307 15.5984 13.4497C15.011 14.0978 14.7929 14.5368 14.7445 14.9839ZM14.3302 6.02243C13.6925 5.61593 12.9543 5.40018 12.2009 5.40001C11.4474 5.39985 10.7092 5.61528 10.0712 6.0215L9.42668 5.00931C10.2565 4.48087 11.2183 4.1998 12.2011 4.20001C13.1839 4.20022 14.1456 4.48171 14.9752 5.0105L14.3302 6.02243ZM8.59511 7.69612C8.26858 8.38402 8.1405 9.15137 8.2256 9.90979C8.3107 10.6682 8.60553 11.3868 9.07613 11.983C9.1136 12.0302 9.3318 12.2616 9.4992 12.4392L8.62603 13.2624C8.61348 13.2491 8.59961 13.2344 8.58473 13.2186C8.44279 13.0682 8.20804 12.8195 8.13607 12.7288L8.13427 12.7265C7.52411 11.9536 7.14304 11.0235 7.03308 10.0436C6.92313 9.0637 7.08848 8.07175 7.51104 7.18154L8.59511 7.69612ZM8.59511 7.69612C8.92164 7.00821 9.43332 6.42773 10.0712 6.0215L9.42668 5.00931C8.59699 5.53764 7.93365 6.29121 7.51104 7.18154L8.59511 7.69612Z"
    fill="white" />
  <path fill-rule="evenodd" clip-rule="evenodd"
    d="M9.72003 16.7H14.68V19.9H9.72003V16.7ZM10.92 18.7H13.48V17.9H10.92V18.7Z" fill="white" />
  <path d="M10.2 10.6L12.7714 6.40002V9.20002H14.2L11.6286 13.4V10.6H10.2Z" fill="white" />
</svg>