<svg xmlns="http://www.w3.org/2000/svg" width="162" height="129" viewBox="0 0 162 129">
    <g fill="none" fill-rule="evenodd">
        <g>
            <g>
                <g>
                    <g transform="translate(-107 -355) translate(0 135) translate(107 220) translate(0 90)">
                        <rect width="161" height="38" x=".5" y=".5" fill="#FFF" stroke="#DFE5EC" rx="4"/>
                        <circle cx="21.5" cy="19.5" r="12" fill="#EFF2F5" stroke="#DFE5EC"/>
                        <g stroke="#C9D0D8">
                            <path d="M10 10l-.006-1.467c.002-.396-.114-.747-.267-1.01-.152-.265-.33-.451-.458-.592l-.004-.004c-.115-.122-.18-.2-.209-.254-.027-.054-.044-.088-.047-.224v-2.31C9.01 2.269 7.8.668 6.111.166L6.03.14h-.034C5.68.055 5.348.001 5.001 0c-.35 0-.682.055-.998.141h-.034l-.082.025C2.2.668.991 2.268.99 4.139v2.31c-.003.136-.02.17-.048.225-.028.053-.093.132-.209.254-.13.144-.309.33-.46.595-.154.263-.27.614-.268 1.013L0 10H10z" transform="translate(17 13)"/>
                            <path d="M3.991 12.987c1.105 0 2-.895 2-2 0-1.104-.895-2-2-2" transform="translate(17 13) rotate(90 4.991 10.987)"/>
                        </g>
                        <g transform="translate(40 10)">
                            <rect width="79" height="7" fill="#DFE5EC" rx="3.5"/>
                            <rect width="113" height="7" y="12" fill="#EFF2F5" rx="3.5"/>
                        </g>
                    </g>
                    <g transform="translate(-107 -355) translate(0 135) translate(107 220) translate(0 45)">
                        <rect width="161" height="38" x=".5" y=".5" fill="#FFF" stroke="#DFE5EC" rx="4"/>
                        <circle cx="21.5" cy="19.5" r="12" fill="#EFF2F5" stroke="#DFE5EC"/>
                        <g stroke="#C9D0D8">
                            <path d="M10 10l-.006-1.467c.002-.396-.114-.747-.267-1.01-.152-.265-.33-.451-.458-.592l-.004-.004c-.115-.122-.18-.2-.209-.254-.027-.054-.044-.088-.047-.224v-2.31C9.01 2.269 7.8.668 6.111.166L6.03.14h-.034C5.68.055 5.348.001 5.001 0c-.35 0-.682.055-.998.141h-.034l-.082.025C2.2.668.991 2.268.99 4.139v2.31c-.003.136-.02.17-.048.225-.028.053-.093.132-.209.254-.13.144-.309.33-.46.595-.154.263-.27.614-.268 1.013L0 10H10z" transform="translate(17 13)"/>
                            <path d="M3.991 12.987c1.105 0 2-.895 2-2 0-1.104-.895-2-2-2" transform="translate(17 13) rotate(90 4.991 10.987)"/>
                        </g>
                        <g transform="translate(40 10)">
                            <rect width="79" height="7" fill="#DFE5EC" rx="3.5"/>
                            <rect width="113" height="7" y="12" fill="#EFF2F5" rx="3.5"/>
                        </g>
                    </g>
                    <g transform="translate(-107 -355) translate(0 135) translate(107 220)">
                        <rect width="161" height="38" x=".5" y=".5" fill="#FFF" stroke="#DFE5EC" rx="4"/>
                        <circle cx="21.5" cy="19.5" r="12" fill="#EFF2F5" stroke="#DFE5EC"/>
                        <g stroke="#C9D0D8">
                            <path d="M10 10l-.006-1.467c.002-.396-.114-.747-.267-1.01-.152-.265-.33-.451-.458-.592l-.004-.004c-.115-.122-.18-.2-.209-.254-.027-.054-.044-.088-.047-.224v-2.31C9.01 2.269 7.8.668 6.111.166L6.03.14h-.034C5.68.055 5.348.001 5.001 0c-.35 0-.682.055-.998.141h-.034l-.082.025C2.2.668.991 2.268.99 4.139v2.31c-.003.136-.02.17-.048.225-.028.053-.093.132-.209.254-.13.144-.309.33-.46.595-.154.263-.27.614-.268 1.013L0 10H10z" transform="translate(17 13)"/>
                            <path d="M3.991 12.987c1.105 0 2-.895 2-2 0-1.104-.895-2-2-2" transform="translate(17 13) rotate(90 4.991 10.987)"/>
                        </g>
                        <g transform="translate(40 10)">
                            <rect width="79" height="7" fill="#DFE5EC" rx="3.5"/>
                            <rect width="113" height="7" y="12" fill="#EFF2F5" rx="3.5"/>
                        </g>
                    </g>
                </g>
            </g>
        </g>
    </g>
</svg>
