<svg width="180" height="180" viewBox="0 0 180 180" fill="none" xmlns="http://www.w3.org/2000/svg">
<circle cx="90" cy="90" r="90" fill="#EBEBEB"/>
<mask id="mask0_2600_47796" style="mask-type:alpha" maskUnits="userSpaceOnUse" x="0" y="0" width="180" height="180">
<circle cx="90" cy="90" r="90" fill="#C4C4C4"/>
</mask>
<g mask="url(#mask0_2600_47796)">
<path d="M132.028 65.0556C139.775 65.0556 146.056 58.7751 146.056 51.0278C146.056 43.2805 139.775 37 132.028 37C124.28 37 118 43.2805 118 51.0278C118 58.7751 124.28 65.0556 132.028 65.0556Z" fill="#FFD600" stroke="black" stroke-width="2" stroke-miterlimit="10"/>
<rect x="129.883" y="55.8138" width="4.29086" height="4.29086" fill="white" stroke="black" stroke-width="2" stroke-miterlimit="10"/>
<path d="M137.803 51.193C137.803 54.4711 135.14 57.1341 131.862 57.1341C128.584 57.1341 125.921 54.4711 125.921 51.193C125.921 47.9148 128.584 45.2518 131.862 45.2518C135.14 45.2518 137.803 47.9148 137.803 51.193Z" fill="white" stroke="black" stroke-width="2" stroke-miterlimit="10"/>
<path d="M131.824 40.6595V42.4726" stroke="black" stroke-width="2" stroke-miterlimit="10" stroke-linecap="round"/>
<path d="M125.184 42.8741L126.466 44.1562" stroke="black" stroke-width="2" stroke-miterlimit="10" stroke-linecap="round"/>
<path d="M138.33 42.8741L137.048 44.1562" stroke="black" stroke-width="2" stroke-miterlimit="10" stroke-linecap="round"/>
<path d="M124.337 103.744C104.207 88.6832 96.0084 87.8613 90.2038 58.9964L80.07 84.1855C78.7477 79.1977 76.2819 74.6541 72.4785 71.0396L46.8452 55.5912C40.9691 72.0709 39.7184 79.5602 29.9878 94.0641C22.7333 104.877 21.2375 119.539 33.49 128.09C51.491 140.644 67.7102 130.817 75.8122 115.322C74.4287 127.023 74.0815 138.607 77.8083 146.336C86.4259 164.21 121.979 157.307 131.01 142.283C136.973 132.363 134.966 111.698 124.337 103.744Z" fill="#212322"/>
<path d="M138.199 173.797C136.269 136.662 105.454 107.144 67.8385 107.144C30.2233 107.144 -0.591714 136.662 -2.52148 173.797V241.14H138.199V173.797Z" fill="white" stroke="#212322" stroke-width="2" stroke-miterlimit="10"/>
<path d="M90.4891 73.6739C88.9983 72.6478 87.6608 72.6222 86.5325 73.0511L87.1247 62.9326C87.1247 52.666 78.8083 46.9379 68.5366 46.9379H66.1831C55.9166 46.9379 47.5951 52.666 47.5951 62.9326L48.223 73.6739C46.9569 72.903 45.3283 72.6222 43.4649 73.9088C39.3399 76.7524 40.2487 83.5219 48.9224 85.615L49.05 87.8103C49.05 92.2569 50.3417 95.7897 52.6339 98.3678V114.756C52.6339 120.867 58.4845 122.74 63.6407 123.72C70.6859 125.058 82.0961 124.057 82.0961 114.756V98.3576C84.3832 95.7795 85.6697 92.2467 85.6697 87.8103L85.8229 85.176C93.7513 82.8735 94.4813 76.4358 90.4839 73.679L90.4891 73.6739Z" fill="white" stroke="#212322" stroke-width="2" stroke-miterlimit="10"/>
<path d="M88.5804 77.3497L85.9512 79.7849" stroke="#212322" stroke-width="2" stroke-linecap="round" stroke-linejoin="round"/>
<path d="M46.7227 77.5795L49.3518 80.0198" stroke="#212322" stroke-width="2" stroke-linecap="round" stroke-linejoin="round"/>
<path d="M145.432 106.858C142.983 104.759 138.994 101.181 134.364 100.635C134.364 100.635 142.149 84.1907 136.978 84.8339C131.796 85.4823 127.564 101.431 125.277 106.725C123.337 111.213 123.607 121.745 122.362 131.46C118.885 146.27 117.226 161.81 115.587 176.896C114.275 189.006 105.795 229.454 129.892 223.834C148.735 219.438 149.092 193.902 147.923 179.127C146.136 156.475 141.675 132.68 140.041 124.93L142.522 117.88C142.522 117.88 145.575 120.703 147.158 118.426C147.158 118.426 148.75 120.897 150.246 119.937C152.601 118.426 149.006 109.921 145.432 106.858Z" fill="white" stroke="#212322" stroke-width="2" stroke-miterlimit="10"/>
<path d="M133.7 118.518C133.7 118.518 130.718 114.255 129.325 115.123C127.936 115.986 134.215 101.773 129.657 104.285C125.108 106.797 123.821 114.041 123.821 114.041" stroke="#212322" stroke-width="2" stroke-miterlimit="10" stroke-linecap="round"/>
<path d="M133.96 109.411C133.852 111.07 134.266 115.618 137.998 118.146" stroke="#212322" stroke-width="2" stroke-miterlimit="10" stroke-linecap="round"/>
<path d="M137.519 108.9C137.519 108.9 139.019 114.832 142.593 118.151" stroke="#212322" stroke-width="2" stroke-miterlimit="10" stroke-linecap="round"/>
<path d="M144.155 111.453C144.155 111.453 145.488 115.588 147.652 119.064" stroke="#212322" stroke-width="2" stroke-miterlimit="10" stroke-linecap="round"/>
<path d="M59.5367 78.6821C59.6805 78.6821 59.7971 78.1884 59.7971 77.5794C59.7971 76.9704 59.6805 76.4767 59.5367 76.4767C59.3929 76.4767 59.2764 76.9704 59.2764 77.5794C59.2764 78.1884 59.3929 78.6821 59.5367 78.6821Z" fill="#212322" stroke="#212322" stroke-width="2" stroke-miterlimit="10"/>
<path d="M75.0358 78.6821C75.1795 78.6821 75.2961 78.1884 75.2961 77.5794C75.2961 76.9704 75.1795 76.4767 75.0358 76.4767C74.892 76.4767 74.7754 76.9704 74.7754 77.5794C74.7754 78.1884 74.892 78.6821 75.0358 78.6821Z" fill="#212322" stroke="#212322" stroke-width="2" stroke-miterlimit="10"/>
<path d="M67.2814 75.4659C67.2814 75.4659 69.7625 80.5303 70.3343 81.8577C71.0286 83.4658 69.2878 85.5692 66.5156 84.0427" stroke="#212322" stroke-width="2" stroke-miterlimit="10" stroke-linecap="round"/>
<path d="M61.875 89.0101C61.875 89.0101 63.6312 93.2321 69.0529 93.1045" stroke="#212322" stroke-width="2" stroke-miterlimit="10" stroke-linecap="round"/>
<path d="M61.8745 41.3375C52.0725 43.109 48.1976 52.3495 48.1976 52.3495C42.3062 63.1164 49.085 75.2555 49.085 75.2555C54.9151 75.9294 55.5849 66.4858 57.6168 60.768C60.7105 64.8266 68.7512 73.2043 82.0605 72.51C83.1632 72.5202 84.22 74.6593 85.4402 74.5572L88.1613 71.6012C97.7642 44.9112 72.3045 39.4537 61.8745 41.3375Z" fill="#212322"/>
<path d="M22.3457 156.7V215.487" stroke="#212322" stroke-width="2" stroke-miterlimit="10" stroke-linecap="round"/>
<path d="M45.8496 110.646L55.0339 134.064L67.7459 125.196" stroke="#212322" stroke-width="2" stroke-miterlimit="10"/>
<path d="M88.5795 110.646L80.6409 134.064L67.7451 125.196" stroke="#212322" stroke-width="2" stroke-miterlimit="10"/>
<path d="M1.62826 153.668C1.62826 153.668 -32.6022 238.731 21.799 251.519L39.6264 207.701L15.6982 198.609" fill="white"/>
<path d="M1.62826 153.668C1.62826 153.668 -32.6022 238.731 21.799 251.519L39.6264 207.701L15.6982 198.609" stroke="#212322" stroke-width="2" stroke-miterlimit="10" stroke-linecap="round"/>
<path d="M105.295 160.1C105.295 160.1 102.681 212.107 115.612 217.83" stroke="#212322" stroke-width="2" stroke-miterlimit="10" stroke-linecap="round"/>
<path d="M67.8378 136.146C68.9261 136.146 69.8084 135.264 69.8084 134.176C69.8084 133.087 68.9261 132.205 67.8378 132.205C66.7495 132.205 65.8672 133.087 65.8672 134.176C65.8672 135.264 66.7495 136.146 67.8378 136.146Z" fill="#212322"/>
<path d="M67.8378 147.74C68.9261 147.74 69.8084 146.858 69.8084 145.77C69.8084 144.681 68.9261 143.799 67.8378 143.799C66.7495 143.799 65.8672 144.681 65.8672 145.77C65.8672 146.858 66.7495 147.74 67.8378 147.74Z" fill="#212322"/>
<path d="M67.8378 159.334C68.9261 159.334 69.8084 158.452 69.8084 157.364C69.8084 156.275 68.9261 155.393 67.8378 155.393C66.7495 155.393 65.8672 156.275 65.8672 157.364C65.8672 158.452 66.7495 159.334 67.8378 159.334Z" fill="#212322"/>
<path d="M67.8378 170.933C68.9261 170.933 69.8084 170.051 69.8084 168.963C69.8084 167.874 68.9261 166.992 67.8378 166.992C66.7495 166.992 65.8672 167.874 65.8672 168.963C65.8672 170.051 66.7495 170.933 67.8378 170.933Z" fill="#212322"/>
</g>
</svg>
