<svg width="180" height="180" viewBox="0 0 180 180" fill="none" xmlns="http://www.w3.org/2000/svg">
<circle cx="90" cy="90" r="90" fill="#EBEBEB"/>
<mask id="mask0_2600_47794" style="mask-type:alpha" maskUnits="userSpaceOnUse" x="0" y="0" width="180" height="180">
<circle cx="90" cy="90" r="90" fill="#C4C4C4"/>
</mask>
<g mask="url(#mask0_2600_47794)">
<path d="M40.2148 38.2079C40.2148 38.2079 32.7445 37.4971 32.7445 46.2391V64.109L32.7163 86.1592C32.7163 86.1592 32.5237 90.9233 29 90.9233H67.9345C67.9345 90.9233 75.4047 91.6341 75.4047 82.8922L75.4329 65.0223V42.972C75.4329 42.972 75.6256 38.2079 79.1493 38.2079H40.2148Z" fill="white" stroke="black" stroke-width="2" stroke-miterlimit="10"/>
<path d="M57.8213 49.8667C57.8213 51.6955 56.3357 53.1812 54.5068 53.1812C52.678 53.1812 51.1924 51.6955 51.1924 49.8667C51.1924 48.0379 52.678 46.5522 54.5068 46.5522C56.3357 46.5522 57.8213 48.0379 57.8213 49.8667Z" fill="white" stroke="black" stroke-width="2" stroke-miterlimit="10"/>
<path d="M48.0225 65.2862V62.1408C48.0225 58.4649 50.9248 55.4869 54.5073 55.4869C58.0898 55.4869 60.9921 58.4649 60.9921 62.1408V65.2862" fill="white"/>
<path d="M48.0225 65.2862V62.1408C48.0225 58.4649 50.9248 55.4869 54.5073 55.4869C58.0898 55.4869 60.9921 58.4649 60.9921 62.1408V65.2862" stroke="black" stroke-width="2" stroke-miterlimit="10" stroke-linecap="round"/>
<path d="M50.3281 72.2032H63.2978" stroke="black" stroke-width="2" stroke-miterlimit="10" stroke-linecap="round"/>
<path d="M50.3281 77.3911H63.2978" stroke="black" stroke-width="2" stroke-miterlimit="10" stroke-linecap="round"/>
<path d="M50.3281 82.2908H63.2978" stroke="black" stroke-width="2" stroke-miterlimit="10" stroke-linecap="round"/>
<path d="M44.5635 72.2032H47.4456" stroke="black" stroke-width="2" stroke-miterlimit="10" stroke-linecap="round"/>
<path d="M44.5635 77.3911H47.4456" stroke="black" stroke-width="2" stroke-miterlimit="10" stroke-linecap="round"/>
<path d="M44.5635 82.2908H47.4456" stroke="black" stroke-width="2" stroke-miterlimit="10" stroke-linecap="round"/>
<path d="M73.813 46.7451C78.7132 46.7451 82.6856 42.7727 82.6856 37.8726C82.6856 32.9724 78.7132 29 73.813 29C68.9128 29 64.9404 32.9724 64.9404 37.8726C64.9404 42.7727 68.9128 46.7451 73.813 46.7451Z" fill="#00B900" stroke="black" stroke-width="2" stroke-miterlimit="10"/>
<path d="M69.0547 36.0466L73.6104 40.5729L84.9996 29.2571" stroke="#212322" stroke-width="2" stroke-linecap="round"/>
<path d="M138.998 99.6084C140.708 96.748 140.708 93.8559 140.708 89.3174L140.84 87.0735C149.571 84.9377 150.486 78.0282 146.337 75.1233C144.456 73.8139 142.82 74.0999 141.542 74.8818L142.175 63.9168C142.175 53.435 129.824 50.2142 123.459 46.2076L121.09 44.9363C110.755 44.9363 102.381 53.435 102.381 63.9168L102.977 74.2461C101.842 73.8139 100.495 73.833 98.9904 74.8818C94.9665 77.6977 95.6999 84.2703 103.685 86.6222L103.842 89.3174C103.842 93.8495 105.139 97.4537 107.439 100.085V120.566C111.639 121.761 117.382 127.698 121.957 127.698C127.611 127.698 131.703 122.101 136.749 120.303C136.975 119.502 137.104 117.903 137.104 116.828V102.151L138.998 99.6084Z" fill="white" stroke="#212322" stroke-width="2" stroke-miterlimit="10"/>
<path d="M101.345 79.4442L104.162 82.2616" stroke="#212322" stroke-width="2" stroke-linecap="round" stroke-linejoin="round"/>
<path d="M143.607 79.4442L140.79 82.2616" stroke="#212322" stroke-width="2" stroke-linecap="round" stroke-linejoin="round"/>
<path d="M112.158 79.1494L112.158 79.1494L112.154 79.1541C111.67 79.6977 111.447 79.6494 111.428 79.6433C111.371 79.6252 111.205 79.4952 111.091 79.0301C110.988 78.6071 110.97 78.0496 111.058 77.4902C111.144 76.9404 111.326 76.4335 111.585 76.0711L111.881 75.7547C112.287 75.6595 112.462 75.7652 112.553 75.861C112.695 76.0104 112.804 76.3146 112.818 76.7789C112.831 77.225 112.752 77.7331 112.618 78.1861C112.479 78.6521 112.301 78.9937 112.158 79.1494Z" fill="#212322" stroke="#212322"/>
<path d="M129.063 79.1494L129.063 79.1494L129.058 79.1541C128.574 79.6977 128.351 79.6494 128.332 79.6433C128.275 79.6252 128.109 79.4952 127.996 79.0301C127.893 78.6071 127.875 78.0496 127.962 77.4902C128.049 76.9404 128.23 76.4335 128.489 76.0711L128.785 75.7547C129.191 75.6595 129.366 75.7652 129.457 75.861C129.599 76.0104 129.709 76.3146 129.722 76.7789C129.735 77.225 129.657 77.7331 129.522 78.1861C129.383 78.6521 129.205 78.9937 129.063 79.1494Z" fill="#212322" stroke="#212322"/>
<path d="M142.053 52.8601L142.301 53.1747C144.13 55.7192 144.67 59.1433 144.479 62.7013C144.281 66.4002 143.295 70.1676 142.243 73.0675C142.242 73.0685 142.242 73.0695 142.241 73.0704L142.022 73.6521C141.061 70.5397 139.164 65.0213 137.33 61.7865L137.064 61.318L136.617 61.6176C127.358 67.8162 117.63 64.2408 108.72 59.0593L108.167 58.7376L107.989 59.3522C107.923 59.5772 107.858 59.8023 107.793 60.0272C106.866 63.2239 105.95 66.3839 105.073 68.8552C104.603 70.1789 104.151 71.285 103.723 72.0854C103.509 72.486 103.309 72.7943 103.126 73.011C103.102 73.04 103.078 73.0666 103.055 73.091C101.621 70.3044 100.114 65.3083 99.7942 60.8715C99.6243 58.5165 99.7942 56.3829 100.439 54.8371C100.758 54.0705 101.187 53.4661 101.733 53.0437C102.274 52.6245 102.957 52.3635 103.825 52.3224L104.571 52.2871L104.255 51.6111C103.784 50.606 103.512 49.4919 103.512 48.315C103.512 44.0005 107.03 40.5 111.38 40.5C112.334 40.5 113.242 40.6765 114.094 40.9901L114.153 41.012L114.216 41.0184C114.69 41.066 115.148 41.149 115.572 41.2661C117.889 41.9172 120.96 43.5255 124.083 45.1612L124.127 45.184C127.223 46.8057 130.375 48.4546 132.733 49.0687L132.733 49.0687C133.743 49.3312 134.677 49.4834 135.537 49.6198C135.575 49.6259 135.613 49.6319 135.651 49.6378C136.474 49.7681 137.218 49.886 137.93 50.0746C139.383 50.4597 140.699 51.1395 142.053 52.8601Z" fill="#363636" stroke="#212322"/>
<path d="M121.461 75.9225L117.544 85.9739C117.544 85.9739 118.136 89.4616 122.474 88.3998" stroke="#212322" stroke-width="2" stroke-miterlimit="10" stroke-linecap="round"/>
<path d="M120.362 96.5027C120.362 96.5027 126.563 99.1518 128.815 92.827" stroke="#212322" stroke-width="2" stroke-miterlimit="10" stroke-linecap="round"/>
<path d="M64.9853 248.426C64.9853 248.426 67.6971 151.94 91.5603 124.986L150.399 121.209C150.399 121.209 197.072 118.697 199 248.426L64.9853 248.426Z" fill="white" stroke="#212322" stroke-width="2" stroke-miterlimit="10"/>
<path d="M104.214 125.607L95.6866 135.445L91.4424 124.969L106.873 112.397L112.683 122.106L104.214 125.607Z" fill="white" stroke="#212322" stroke-width="2" stroke-miterlimit="10"/>
<path d="M111.327 123.612L137.72 113.753L149.043 121.209L121.454 138.608L111.327 123.612Z" fill="white" stroke="#212322" stroke-width="2" stroke-miterlimit="10"/>
<path d="M159.404 170.876C159.254 169.782 158.245 169.016 157.151 169.166C156.057 169.316 155.291 170.325 155.441 171.42L159.404 170.876ZM157.456 186.106C157.606 187.2 158.615 187.966 159.709 187.816C160.803 187.666 161.569 186.657 161.419 185.562L157.456 186.106ZM155.441 171.42L157.456 186.106L161.419 185.562L159.404 170.876L155.441 171.42Z" fill="#212322"/>
<path d="M157.015 221.702L127.41 197.108C127.41 197.108 106.416 193.681 85.5472 192.613L90.2924 165.95L73.0015 143.689C49.7153 170.734 42.8408 197.578 45.6538 207.451C50.54 235.757 152.949 227.907 157.015 221.702Z" fill="white"/>
<path d="M70.7368 187.934C76.7071 189.655 78.1453 189.67 85.5472 192.613M85.5472 192.613C106.416 193.681 127.41 197.108 127.41 197.108L157.015 221.702C152.949 227.907 50.54 235.757 45.6538 207.451C42.8408 197.578 49.7153 170.734 73.0015 143.689L90.2924 165.95L85.5472 192.613Z" stroke="#212322" stroke-width="2" stroke-linecap="round"/>
<rect x="79.6924" y="122.516" width="26.6123" height="38.8654" rx="7" fill="#363636" stroke="#212322" stroke-width="2" stroke-miterlimit="10"/>
<path d="M79.5774 148.958C79.5774 148.958 96.0959 153.328 106.286 148.16L106.286 144.196C106.286 144.196 116.097 144.518 116.097 161.024C116.097 161.024 115.994 168.984 119.058 172.362C122.123 175.741 173.092 197.439 184.843 203.881C201.143 212.806 197.532 254.073 159.465 235.573C123.71 218.198 103.979 185.194 99.4047 181.088C94.8302 176.983 74.4953 176.159 71.1223 154.975C68.2375 136.841 79.5774 135.445 79.5774 135.445L79.5774 148.958Z" fill="white" stroke="#212322" stroke-width="2" stroke-miterlimit="10"/>
<path d="M85.0625 191.856C85.0625 191.856 82.324 187.34 73.8868 182.445L85.0625 191.856Z" fill="white"/>
<path d="M83.3524 192.893C83.9251 193.838 85.155 194.139 86.0995 193.567C87.044 192.994 87.3454 191.764 86.7726 190.819L83.3524 192.893ZM74.8905 180.715C73.9351 180.161 72.7112 180.486 72.1569 181.441C71.6025 182.396 71.9276 183.62 72.883 184.175L74.8905 180.715ZM85.0625 191.856C86.7726 190.819 86.7722 190.819 86.7717 190.818C86.7715 190.818 86.7711 190.817 86.7707 190.816C86.77 190.815 86.7693 190.814 86.7685 190.813C86.767 190.81 86.7653 190.807 86.7634 190.804C86.7596 190.798 86.7551 190.791 86.7499 190.783C86.7396 190.766 86.7263 190.745 86.7101 190.72C86.6778 190.67 86.6337 190.603 86.5771 190.521C86.4639 190.356 86.3007 190.128 86.0818 189.847C85.6439 189.283 84.9833 188.504 84.0535 187.573C82.1926 185.71 79.2607 183.251 74.8905 180.715L72.883 184.175C76.9501 186.534 79.606 188.781 81.2237 190.4C82.0331 191.21 82.5845 191.865 82.9237 192.302C83.0934 192.52 83.2101 192.684 83.2796 192.785C83.3144 192.836 83.3374 192.871 83.3492 192.889C83.3552 192.898 83.3583 192.903 83.3588 192.904C83.3591 192.904 83.3587 192.904 83.3576 192.902C83.357 192.901 83.3563 192.9 83.3555 192.898C83.355 192.898 83.3545 192.897 83.354 192.896C83.3538 192.896 83.3533 192.895 83.3532 192.895C83.3528 192.894 83.3524 192.893 85.0625 191.856Z" fill="#212322"/>
</g>
</svg>
