<svg width="24" height="24" viewBox="0 0 24 24" fill="none" xmlns="http://www.w3.org/2000/svg">
<path d="M6.95685 4H17.0435V10.4027C17.0435 10.9653 16.913 11.5224 16.6596 12.0422C16.4061 12.562 16.0346 13.0343 15.5663 13.4321C15.098 13.8299 14.542 14.1455 13.9301 14.3608C13.3183 14.5761 12.6625 14.6869 12.0002 14.6869C11.3379 14.6869 10.682 14.5761 10.0702 14.3608C9.45828 14.1455 8.90231 13.8299 8.434 13.4321C7.48819 12.6286 6.95685 11.5389 6.95685 10.4027V4Z" fill="#F79E1B" stroke="#F79E1B" stroke-width="1.79669" stroke-linejoin="round"/>
<path d="M3 5.66254H6.95663V11.0471H6.20431C5.35447 11.0471 4.53945 10.7209 3.93852 10.1402C3.3376 9.55961 3 8.7721 3 7.95097V5.66254Z" stroke="#F79E1B" stroke-width="1.79669" stroke-linejoin="round"/>
<path d="M17.8027 11.0403H17.0434V5.65581L21 5.65581V7.94423C21 8.7642 20.6634 9.55069 20.0639 10.1311C19.4645 10.7116 18.6513 11.0386 17.8027 11.0403V11.0403Z" stroke="#F79E1B" stroke-width="1.79669" stroke-linejoin="round"/>
<path d="M11.9998 14.6796V19.9952" stroke="#F79E1B" stroke-width="1.79669" stroke-linejoin="bevel"/>
<path d="M7.65283 20H16.2627" stroke="#F79E1B" stroke-width="1.79669" stroke-linecap="round" stroke-linejoin="bevel"/>
</svg>
